<?xml version="1.0" encoding="utf-8"?>
<!-- Generator: Adobe Illustrator 26.3.1, SVG Export Plug-In . SVG Version: 6.00 Build 0)  -->
<svg version="1.1" id="Layer_1" xmlns="http://www.w3.org/2000/svg" xmlns:xlink="http://www.w3.org/1999/xlink" x="0px" y="0px"
	 viewBox="0 0 478 475" style="enable-background:new 0 0 478 475;" xml:space="preserve">
<style type="text/css">
	.st0{clip-path:url(#SVGID_00000012460585797012004130000017453140144461049781_);fill:#00FF6A;}
</style>
<g>
	<defs>
		<rect id="SVGID_1_" x="15.34" y="13.29" width="447.52" height="447.42"/>
	</defs>
	<clipPath id="SVGID_00000020362470131023177580000010156606469596607917_">
		<use xlink:href="#SVGID_1_"  style="overflow:visible;"/>
	</clipPath>
	<path style="clip-path:url(#SVGID_00000020362470131023177580000010156606469596607917_);fill:#00FF6A;" d="M214,63.05l9.15-1.1
		l-4.09-33.88l-9.15,1.11L214,63.05z M218.81,22.94l-1.16-9.65l-9.79,1.18l1.17,9.65L218.81,22.94z M199.71,30.14l-10.89,3.02
		l-7.71,15.29l-7.73-27.89l-8.88,2.46l13.47,48.57l8.88-2.46l-2.67-9.64l2.42-4.48l12.74,10.66l10.2-2.83l-18.85-15.69L199.71,30.14
		z M162.88,78.61l8.37-3.85l-14.25-31.01l-8.38,3.85L162.88,78.61z M155.2,38.96l-4.06-8.83l-8.96,4.12l4.06,8.83L155.2,38.96z
		 M128.34,38.48l-10.19,7.16l-4.06,30.56l-13.03-18.56l-7.96,5.59l28.96,41.25l7.96-5.59l-8.07-11.49l1.65-12.07l25.16,10.4
		l9.43-6.62l-33.45-13.55L128.34,38.48z M106.27,121.86L67.21,90.01l-5.82,7.14L100.45,129L106.27,121.86z M96.01,134.86
		L54.07,106.9l-5.11,7.67l41.93,27.96L96.01,134.86z M73.95,160.33c-1.6,3.38-3.94,4.27-6.08,3.25c-2.47-1.17-2.78-3.71-1.39-6.64
		c0.68-1.43,1.71-2.77,3.19-4.38l1.48-1.61l0.26,0.12C75.05,152.8,75.71,156.62,73.95,160.33 M78.75,166.67
		c2.47-5.2,1.97-9.19-0.56-12.77l4.75,2.25l3.61-7.61l-19-9.01c-7.94-3.77-14.74-1.18-19.22,8.26c-3.64,7.68-1.89,14.24,3.06,18.58
		l5.38-6.3c-2.68-2.07-3.78-5.3-1.96-9.14c1.76-3.71,4.94-5.38,8.52-3.69l1.95,0.93l-1.95,2.42c-1.29,1.54-2.32,3.2-3.15,4.96
		c-3.3,6.96-2.65,13.48,4.18,16.73C70.42,175.15,76.28,171.87,78.75,166.67 M24.53,198.16c1.36-7.88,7.11-12,14.31-12.22l-2.39-9.47
		c-9.17,0.61-18.27,6.79-20.56,20.13c-2.53,14.69,6.59,27.51,21.13,30.01s27.24-5.47,29.95-21.22c2.39-13.91-4.31-24.19-15.49-28.82
		l-4.98,8.13c7.76,2.87,13.46,9.26,11.76,19.12c-1.54,8.94-8.91,14.83-19.55,13C28.27,215.02,23.01,206.96,24.53,198.16
		 M65.1,261.54l-1.1-9.15l-33.88,4.09l1.1,9.15L65.1,261.54z M24.99,256.74l-9.65,1.17l1.18,9.79l9.65-1.16L24.99,256.74z
		 M32.12,275.85l3.02,10.89l15.29,7.72l-27.89,7.73l2.46,8.88l48.57-13.47l-2.46-8.88l-9.64,2.67l-4.48-2.42l10.66-12.75l-2.83-10.2
		l-15.69,18.85L32.12,275.85z M80.49,312.72l-3.75-8.42l-31.18,13.87l3.75,8.42L80.49,312.72z M40.74,319.92l-8.88,3.95l4.01,9.01
		l8.88-3.95L40.74,319.92z M40.32,347.28l7.16,10.19l30.56,4.06l-18.56,13.03l5.59,7.96l41.25-28.96l-5.59-7.96l-11.49,8.07
		l-12.07-1.65l10.4-25.16l-6.62-9.43l-13.55,33.45L40.32,347.28z M123.61,369.44L91.76,408.5l7.14,5.82l31.85-39.06L123.61,369.44z
		 M136.58,379.74l-27.96,41.93l7.67,5.11l27.96-41.93L136.58,379.74z M162.02,401.85c3.38,1.6,4.27,3.94,3.25,6.08
		c-1.17,2.47-3.71,2.78-6.64,1.39c-1.43-0.68-2.77-1.71-4.38-3.19l-1.61-1.48l0.12-0.26C154.49,400.75,158.31,400.1,162.02,401.85
		 M168.36,397.05c-5.2-2.47-9.19-1.97-12.78,0.55l2.25-4.75l-7.61-3.61l-9.01,18.99c-3.76,7.94-1.18,14.74,8.26,19.22
		c7.68,3.64,14.24,1.89,18.58-3.06l-6.29-5.38c-2.07,2.68-5.3,3.78-9.14,1.96c-3.71-1.76-5.38-4.95-3.69-8.52l0.93-1.95l2.42,1.95
		c1.54,1.29,3.2,2.32,4.96,3.15c6.96,3.3,13.49,2.65,16.73-4.18C176.84,405.38,173.57,399.52,168.36,397.05 M199.81,451.39
		c-7.88-1.36-12-7.11-12.22-14.3l-9.47,2.39c0.61,9.16,6.79,18.27,20.13,20.56c14.69,2.53,27.51-6.59,30.01-21.14
		c2.5-14.55-5.46-27.24-21.22-29.95c-13.91-2.39-24.19,4.31-28.82,15.5l8.13,4.98c2.87-7.76,9.26-13.46,19.12-11.76
		c8.94,1.54,14.83,8.91,13,19.55C216.68,447.65,208.61,452.91,199.81,451.39 M263.2,410.95l-9.15,1.11l4.09,33.88l9.15-1.1
		L263.2,410.95z M258.39,451.06l1.17,9.65l9.79-1.18l-1.17-9.65L258.39,451.06z M277.52,444l10.89-3.02l7.71-15.29l7.73,27.89
		l8.88-2.46l-13.47-48.57l-8.88,2.46l2.67,9.64l-2.42,4.48l-12.74-10.66l-10.2,2.83l18.85,15.7L277.52,444z M314.41,395.7
		l-8.42,3.75l13.87,31.18l8.42-3.74L314.41,395.7z M321.61,435.44l3.95,8.88l9.01-4.01l-3.95-8.88L321.61,435.44z M349.02,435.94
		l10.19-7.16l4.06-30.56l13.03,18.56l7.95-5.59l-28.96-41.25l-7.96,5.58l8.07,11.49l-1.65,12.06l-25.16-10.4l-9.43,6.62l33.45,13.55
		L349.02,435.94z M371.26,352.74l39.06,31.85l5.82-7.14l-39.06-31.85L371.26,352.74z M381.54,339.75l41.59,28.46l5.2-7.6
		l-41.59-28.46L381.54,339.75z M403.76,314.39c1.6-3.38,3.94-4.27,6.08-3.25c2.47,1.17,2.78,3.71,1.39,6.64
		c-0.68,1.43-1.71,2.77-3.19,4.38l-1.48,1.61l-0.26-0.12C402.66,321.91,402,318.09,403.76,314.39 M398.96,308.04
		c-2.47,5.2-1.97,9.19,0.55,12.77l-4.75-2.25l-3.61,7.61l18.99,9.01c7.94,3.77,14.74,1.18,19.22-8.26
		c3.64-7.68,1.89-14.24-3.06-18.58l-5.38,6.3c2.68,2.07,3.78,5.3,1.96,9.14c-1.76,3.71-4.95,5.38-8.52,3.69l-1.95-0.93l1.95-2.42
		c1.29-1.54,2.32-3.2,3.15-4.96c3.3-6.96,2.65-13.48-4.18-16.72C407.29,299.56,401.43,302.84,398.96,308.04 M453.31,277.15
		c-1.46,7.86-7.26,11.91-14.46,12.04l2.27,9.5c9.17-0.5,18.35-6.56,20.81-19.87c2.71-14.65-6.24-27.59-20.76-30.28
		c-14.51-2.69-27.31,5.12-30.22,20.84c-2.57,13.88,4.01,24.25,15.13,29.01l5.08-8.07c-7.72-2.97-13.34-9.42-11.52-19.27
		c1.65-8.92,9.1-14.72,19.71-12.75C449.78,260.24,454.93,268.37,453.31,277.15 M413.16,213.25l0.99,9.16l33.93-3.66l-0.99-9.16
		L413.16,213.25z M453.2,218.56l9.66-1.04l-1.06-9.81l-9.66,1.04L453.2,218.56z M446.22,198.92l-3.02-10.89l-15.29-7.71l27.89-7.73
		l-2.46-8.88l-48.57,13.47l2.46,8.88l9.64-2.67l4.48,2.42l-10.66,12.74l2.83,10.2l15.69-18.85L446.22,198.92z M397.98,162l3.74,8.42
		l31.18-13.87l-3.75-8.42L397.98,162z M437.73,154.8l8.88-3.95l-4.01-9.01l-8.88,3.95L437.73,154.8z M438.41,128.01l-7.04-10.28
		l-30.51-4.42l18.72-12.81l-5.49-8.02l-41.59,28.46l5.49,8.02l11.59-7.93l12.04,1.79l-10.7,25.03l6.51,9.51l13.96-33.28
		L438.41,128.01z M355.15,105.08l32.31-38.68l-7.07-5.91l-32.31,38.68L355.15,105.08z M342.23,94.72l28.46-41.59l-7.6-5.21
		l-28.47,41.59L342.23,94.72z M316.9,72.43c-3.38-1.61-4.27-3.94-3.25-6.08c1.17-2.47,3.71-2.78,6.64-1.39
		c1.43,0.68,2.77,1.71,4.38,3.19l1.61,1.48l-0.12,0.26C324.43,73.53,320.61,74.19,316.9,72.43 M310.56,77.23
		c5.2,2.47,9.19,1.97,12.78-0.55l-2.25,4.75l7.61,3.61l9.01-18.99c3.76-7.94,1.18-14.74-8.26-19.22
		c-7.68-3.64-14.24-1.89-18.58,3.06l6.3,5.38c2.07-2.68,5.3-3.78,9.14-1.96c3.71,1.76,5.39,4.95,3.69,8.52l-0.93,1.95l-2.42-1.95
		c-1.54-1.29-3.2-2.32-4.96-3.15c-6.96-3.3-13.49-2.65-16.73,4.18C302.08,68.9,305.35,74.76,310.56,77.23 M279.7,22.77
		c7.86,1.46,11.91,7.26,12.04,14.46l9.5-2.27c-0.5-9.17-6.56-18.35-19.87-20.81c-14.65-2.71-27.59,6.24-30.28,20.76
		c-2.69,14.51,5.12,27.31,20.84,30.22c13.88,2.57,24.25-4.01,29.02-15.13l-8.07-5.08c-2.97,7.72-9.42,13.34-19.27,11.52
		c-8.92-1.65-14.72-9.09-12.75-19.71C262.79,26.3,270.92,21.15,279.7,22.77"/>
</g>
</svg>
